<svg width="974" height="271" viewBox="0 0 974 271" fill="none" xmlns="http://www.w3.org/2000/svg">
<path d="M390.521 99.6436H371.972V84.3945H426.147V99.6436H407.598V172.054H390.521V99.6436Z" fill="#FFFFFF"/>
<path d="M450.001 100.357V127.6H456.6C467.167 127.6 474.702 121.848 474.702 113.154C474.702 105.395 469.173 100.357 456.243 100.357H450.001ZM450.001 142.983V172.01H432.968V84.3499H454.727C475.416 84.3499 491.869 92.9108 491.869 113.109C491.869 127.422 482.015 136.473 469.307 140.486L493.385 171.965H472.696L450.045 142.938L450.001 142.983Z" fill="#FFFFFF"/>
<path d="M546.667 143.117L533.157 106.822L519.647 143.117H546.667ZM551.973 157.34H514.386L508.857 172.01H491.111L524.953 84.3499H541.852L575.56 172.01H557.457L551.929 157.34H551.973Z" fill="#FFFFFF"/>
<path d="M596.249 84.3945H579.217V172.054H596.249V84.3945Z" fill="#FFFFFF"/>
<path d="M624.785 113.421V172.054H607.753V84.3945H624.34L666.386 143.741V84.3945H683.419V172.054H666.743L624.785 113.421Z" fill="#FFFFFF"/>
<path d="M694.922 84.3945H742.765V99.1977H711.954V119.619H739.822V134.422H711.954V157.251H743.701V172.054H694.922V84.3945Z" fill="#FFFFFF"/>
<path d="M771.436 100.357V127.6H778.035C788.602 127.6 796.138 121.848 796.138 113.154C796.138 105.395 790.609 100.357 777.678 100.357H771.436ZM771.436 142.983V172.01H754.403V84.3499H776.162C796.851 84.3499 813.304 92.9108 813.304 113.109C813.304 127.422 803.45 136.473 790.742 140.486L814.82 171.965H794.131L771.481 142.938L771.436 142.983Z" fill="#FFFFFF"/>
<path d="M839.787 84.3945H822.755V172.054H839.787V84.3945Z" fill="#FFFFFF"/>
<path d="M910.861 172.054H847.324L847.056 170.494L889.504 98.7073H853.298L860.12 84.3945H915.677L915.945 85.9105L873.497 157.697H917.683L910.861 172.054Z" fill="#FFFFFF"/>
<path d="M924.729 84.3945H972.571V99.1977H941.761V119.619H969.629V134.422H941.761V157.251H973.508V172.054H924.729V84.3945Z" fill="#FFFFFF"/>
<path d="M293.72 110.434C299.204 115.517 302.281 122.428 302.37 129.875C302.459 136.919 299.739 143.608 294.701 148.735C289.35 154.13 281.859 157.252 274.146 157.252C262.33 157.252 253.992 147.888 241.373 132.594C230.494 119.396 217.786 104.014 198.658 95.5418V37.2654C198.658 30.4434 204.187 24.9145 211.009 24.9145H274.636C289.172 24.9145 301.344 36.0615 302.325 50.2405C302.682 55.7248 301.701 59.6485 295.414 64.5978C288.548 69.9929 284.401 78.0634 284 86.8026C283.643 95.7202 287.165 104.326 293.764 110.434M174.358 128.002C174.358 133.308 172.218 136.919 168.606 137.677C165.708 138.257 161.784 136.875 159.332 131.257L152.465 115.294C157.147 114.09 162.007 113.422 167.045 113.422C169.587 113.422 172.039 113.555 174.358 113.867V128.002ZM326.715 129.607C326.536 115.651 320.562 102.185 310.306 92.6436C308.969 91.3951 308.211 89.6116 308.3 87.8281C308.345 86.6688 308.746 85.0191 310.396 83.726C317.976 77.7958 327.919 67.6744 326.581 48.5907C324.753 21.7042 301.924 0.614099 274.681 0.614099H211.054C190.811 0.614099 174.358 17.0671 174.358 37.2654V89.4333C171.995 89.2549 169.542 89.1212 167.045 89.1212C158.618 89.1212 150.459 90.4142 142.79 92.7774L110.865 18.7168C106.049 7.52524 95.4817 0.569519 83.3092 0.569519C71.1367 0.569519 60.5694 7.52524 55.7539 18.7168L3.45221 139.639C-0.560701 148.958 0.375646 159.57 5.94914 168.042C11.5226 176.514 20.8861 181.597 31.0522 181.597H49.8683V157.296H31.0522C28.3769 157.296 26.9055 155.691 26.2812 154.71C25.657 153.729 24.7207 151.767 25.7908 149.315L77.9587 28.3924C79.2963 25.2712 82.1053 24.9591 83.22 24.9591C84.3347 24.9591 87.1438 25.3158 88.4814 28.3924L120.808 103.345C96.9085 119.441 81.0352 147.621 81.0352 179.635C81.0352 229.529 119.604 270.104 167.045 270.104C194.467 270.104 220.462 256.192 236.603 232.828L216.627 219.006C204.856 236.038 186.753 245.803 167.045 245.803C133.025 245.803 105.336 216.108 105.336 179.635C105.336 157.697 115.323 138.257 130.662 126.218L136.993 140.888C143.637 156.36 158.306 164.653 173.511 161.487C188.537 158.366 198.658 144.945 198.658 128.002V123.498C207.71 129.964 215.067 138.881 222.647 148.066C236.246 164.519 250.336 181.552 274.19 181.552C288.369 181.552 302.147 175.8 312.045 165.812C321.676 156.048 326.893 143.206 326.759 129.562" fill="#FFCA10"/>
</svg>
